<svg width="16" height="16" viewBox="0 0 16 16" fill="none" xmlns="http://www.w3.org/2000/svg">
<path d="M4.66668 3.99998H4.00001V1.99998C4.00001 1.82317 3.92977 1.6536 3.80475 1.52858C3.67972 1.40355 3.51015 1.33331 3.33334 1.33331C3.15653 1.33331 2.98696 1.40355 2.86194 1.52858C2.73691 1.6536 2.66668 1.82317 2.66668 1.99998V3.99998H2.00001C1.8232 3.99998 1.65363 4.07022 1.52861 4.19524C1.40358 4.32027 1.33334 4.48984 1.33334 4.66665C1.33334 4.84346 1.40358 5.01303 1.52861 5.13805C1.65363 5.26308 1.8232 5.33331 2.00001 5.33331H4.66668C4.84349 5.33331 5.01306 5.26308 5.13808 5.13805C5.26311 5.01303 5.33334 4.84346 5.33334 4.66665C5.33334 4.48984 5.26311 4.32027 5.13808 4.19524C5.01306 4.07022 4.84349 3.99998 4.66668 3.99998ZM3.33334 6.66665C3.15653 6.66665 2.98696 6.73688 2.86194 6.86191C2.73691 6.98693 2.66668 7.1565 2.66668 7.33331V14C2.66668 14.1768 2.73691 14.3464 2.86194 14.4714C2.98696 14.5964 3.15653 14.6666 3.33334 14.6666C3.51015 14.6666 3.67972 14.5964 3.80475 14.4714C3.92977 14.3464 4.00001 14.1768 4.00001 14V7.33331C4.00001 7.1565 3.92977 6.98693 3.80475 6.86191C3.67972 6.73688 3.51015 6.66665 3.33334 6.66665ZM8.00001 12C7.8232 12 7.65363 12.0702 7.52861 12.1952C7.40358 12.3203 7.33334 12.4898 7.33334 12.6666V14C7.33334 14.1768 7.40358 14.3464 7.52861 14.4714C7.65363 14.5964 7.8232 14.6666 8.00001 14.6666C8.17682 14.6666 8.34639 14.5964 8.47141 14.4714C8.59644 14.3464 8.66668 14.1768 8.66668 14V12.6666C8.66668 12.4898 8.59644 12.3203 8.47141 12.1952C8.34639 12.0702 8.17682 12 8.00001 12ZM14 6.66665H13.3333V1.99998C13.3333 1.82317 13.2631 1.6536 13.1381 1.52858C13.0131 1.40355 12.8435 1.33331 12.6667 1.33331C12.4899 1.33331 12.3203 1.40355 12.1953 1.52858C12.0702 1.6536 12 1.82317 12 1.99998V6.66665H11.3333C11.1565 6.66665 10.987 6.73688 10.8619 6.86191C10.7369 6.98693 10.6667 7.1565 10.6667 7.33331C10.6667 7.51012 10.7369 7.67969 10.8619 7.80472C10.987 7.92974 11.1565 7.99998 11.3333 7.99998H14C14.1768 7.99998 14.3464 7.92974 14.4714 7.80472C14.5964 7.67969 14.6667 7.51012 14.6667 7.33331C14.6667 7.1565 14.5964 6.98693 14.4714 6.86191C14.3464 6.73688 14.1768 6.66665 14 6.66665ZM12.6667 9.33331C12.4899 9.33331 12.3203 9.40355 12.1953 9.52858C12.0702 9.6536 12 9.82317 12 9.99998V14C12 14.1768 12.0702 14.3464 12.1953 14.4714C12.3203 14.5964 12.4899 14.6666 12.6667 14.6666C12.8435 14.6666 13.0131 14.5964 13.1381 14.4714C13.2631 14.3464 13.3333 14.1768 13.3333 14V9.99998C13.3333 9.82317 13.2631 9.6536 13.1381 9.52858C13.0131 9.40355 12.8435 9.33331 12.6667 9.33331ZM9.33334 9.33331H8.66668V1.99998C8.66668 1.82317 8.59644 1.6536 8.47141 1.52858C8.34639 1.40355 8.17682 1.33331 8.00001 1.33331C7.8232 1.33331 7.65363 1.40355 7.52861 1.52858C7.40358 1.6536 7.33334 1.82317 7.33334 1.99998V9.33331H6.66668C6.48987 9.33331 6.3203 9.40355 6.19527 9.52858C6.07025 9.6536 6.00001 9.82317 6.00001 9.99998C6.00001 10.1768 6.07025 10.3464 6.19527 10.4714C6.3203 10.5964 6.48987 10.6666 6.66668 10.6666H9.33334C9.51015 10.6666 9.67972 10.5964 9.80475 10.4714C9.92977 10.3464 10 10.1768 10 9.99998C10 9.82317 9.92977 9.6536 9.80475 9.52858C9.67972 9.40355 9.51015 9.33331 9.33334 9.33331Z" fill="#3478F6"/>
</svg>
