<svg width="174" height="34" viewBox="0 0 174 34" fill="none" xmlns="http://www.w3.org/2000/svg">
<path d="M3.40963 3.74618C6.06758 6.81378 8.71382 9.86816 11.3533 12.9147C14.4358 16.4727 17.5091 20.0199 20.5809 23.5651L20.8452 23.8701L21.1991 23.6762C21.3391 23.5994 21.4855 23.5119 21.621 23.4308C21.6903 23.3894 21.7568 23.3497 21.818 23.314C22.0127 23.2006 22.1894 23.1065 22.3664 23.0384C23.9961 22.4127 25.54 22.6964 27.0094 23.6418C28.8141 24.8061 29.8799 26.4381 30.0288 28.5679L30.0288 28.5682C30.2001 31.0014 28.7571 32.8626 26.4174 33.1194L3.40963 3.74618ZM3.40963 3.74618C3.40818 3.8036 3.40645 3.86078 3.40437 3.91776M3.40963 3.74618L4.14291 8.27902M3.40437 3.91776C3.40436 3.91801 3.40435 3.91826 3.40434 3.91851L2.90468 3.90027L3.40439 3.91705C3.40439 3.91729 3.40438 3.91752 3.40437 3.91776ZM3.40437 3.91776C3.35411 5.41815 3.70035 6.79315 4.55026 7.98907M4.55026 7.98907L4.14291 8.27902M4.55026 7.98907C5.46539 9.27478 6.44418 10.5204 7.43554 11.7665L7.43558 11.7665C11.2294 16.5362 15.0342 21.2967 18.848 26.0511M4.55026 7.98907C4.55033 7.98917 4.55039 7.98926 4.55046 7.98935L4.14291 8.27902M4.14291 8.27902L18.848 26.0511M18.848 26.0511L18.4593 26.3631L18.8481 26.0512C18.848 26.0512 18.848 26.0511 18.848 26.0511ZM24.3261 24.5057L24.3262 24.5057C25.4483 24.6249 26.4692 25.2598 27.1842 26.107C27.899 26.9539 28.3494 28.0621 28.263 29.1781M24.3261 24.5057L25.669 30.8757M24.3261 24.5057C23.5656 24.4251 22.8747 24.6214 22.3749 25.0869C21.8764 25.5512 21.6262 26.229 21.6375 26.9991C21.6527 28.0677 22.141 29.1023 22.8568 29.8893C23.5725 30.6762 24.5554 31.2591 25.6157 31.3728M24.3261 24.5057L25.669 30.8757M28.263 29.1781L27.7645 29.1395L28.263 29.1774C28.263 29.1776 28.263 29.1779 28.263 29.1781ZM28.263 29.1781C28.2099 29.8749 27.9281 30.4743 27.4415 30.8777C26.9549 31.2811 26.3126 31.4479 25.6157 31.3728M25.6157 31.3728L25.669 30.8757M25.6157 31.3728C25.6156 31.3728 25.6155 31.3728 25.6154 31.3728L25.669 30.8757M22.0652 31.5885C23.3393 32.7062 24.7703 33.2999 26.4173 33.1194L22.0652 31.5885ZM22.0652 31.5885C21.1806 30.8107 20.5529 29.8589 20.1763 28.7358C20.0871 28.469 19.9838 28.2008 19.8853 27.9454C19.8488 27.8505 19.8129 27.7574 19.7786 27.6667C19.7786 27.6665 19.7785 27.6663 19.7784 27.6662L19.3107 27.8428L22.0652 31.5885Z" fill="white" stroke="white"/>
<path d="M9.96107 22.9481L9.59305 22.6754C8.9642 22.2095 8.45505 21.9675 8.01183 21.8442C7.57025 21.7214 7.16593 21.7084 6.72853 21.7365L6.72817 21.7365C3.33688 21.9513 0.54392 25.3736 0.884348 28.9771L9.96107 22.9481ZM9.96107 22.9481L10.2649 22.6053M9.96107 22.9481L10.2649 22.6053M10.2649 22.6053C10.7538 22.0538 11.2327 21.5142 11.7052 20.9819C11.7173 20.9683 11.7293 20.9547 11.7414 20.9411C12.4071 21.7466 13.0708 22.5495 13.7555 23.3767C13.7297 23.4099 13.7039 23.4431 13.6781 23.4763C13.4359 23.7877 13.1936 24.0994 12.9342 24.4054L12.9339 24.4057M10.2649 22.6053L12.9339 24.4057M12.9339 24.4057C11.9083 25.6178 11.1694 26.975 10.601 28.4654M12.9339 24.4057L13.3156 24.7287C12.3337 25.8892 11.6209 27.1944 11.0682 28.6437M11.0682 28.6437L10.601 28.4654M11.0682 28.6437L10.601 28.4656C10.601 28.4655 10.601 28.4655 10.601 28.4654M11.0682 28.6437L10.601 28.4654M10.601 28.4654C9.66388 30.9208 7.97013 32.4147 5.47786 32.8044L10.601 28.4654ZM5.47766 32.8045C3.19934 33.1596 1.1205 31.4645 0.884366 28.9773L5.47766 32.8045ZM9.23745 26.5695L9.23746 26.5695L9.2377 26.5662C9.23885 26.5504 9.24062 26.5298 9.24265 26.5061C9.24803 26.4432 9.25524 26.359 9.25759 26.2884L9.2576 26.2882C9.28397 25.4836 9.04754 24.7749 8.54734 24.2865C8.0444 23.7955 7.33912 23.5903 6.55835 23.67C5.55184 23.7722 4.58647 24.3813 3.87652 25.2004C3.16284 26.0238 2.6586 27.1139 2.62835 28.2562C2.6055 29.0967 2.87896 29.8414 3.41785 30.3365C3.96229 30.8367 4.71808 31.0266 5.53688 30.8637L5.53736 30.8636C7.46638 30.4778 9.07686 28.5864 9.23745 26.5695Z" fill="white" stroke="white"/>
<path d="M16.2925 15.9428C20.3034 11.2927 24.31 6.64866 28.349 1.96702C28.4168 2.50616 28.4126 3.02944 28.3338 3.55643L28.3337 3.55671C28.1689 4.66295 27.6752 5.64372 26.9926 6.61084L26.9925 6.61093C25.2418 9.09234 23.5039 11.5831 21.767 14.0723C21.2023 14.8816 20.6377 15.6907 20.0729 16.4992L20.0724 16.4999C19.7487 16.965 19.425 17.4315 19.0959 17.9057C18.9556 18.1079 18.8143 18.3115 18.6717 18.5169C18.6065 18.4464 18.5414 18.3759 18.4765 18.3056C17.7431 17.5118 17.0223 16.7315 16.2925 15.9428Z" fill="white" stroke="white"/>
<path d="M35.6436 2.66701H40.292V32.3408H35.6436V2.66701Z" fill="white"/>
<path d="M55.6647 33.0039C53.2021 33.0039 50.9886 32.2855 49.0241 30.8488C47.0595 29.4121 45.7037 27.3952 44.9567 24.798L49.3561 23.0159C49.7988 24.6461 50.5736 25.9861 51.6803 27.036C52.8148 28.0583 54.1706 28.5694 55.7477 28.5694C57.2142 28.5694 58.4593 28.1964 59.4831 27.4504C60.5069 26.6768 61.0187 25.6269 61.0187 24.3007C61.0187 23.085 60.5622 22.0904 59.6491 21.3167C58.7637 20.5155 57.2004 19.7142 54.9592 18.913L53.0915 18.2499C51.0993 17.5592 49.4253 16.5645 48.0695 15.2659C46.7137 13.9674 46.0358 12.2544 46.0358 10.1269C46.0358 8.66255 46.437 7.30872 47.2394 6.06541C48.0418 4.82209 49.1486 3.84125 50.5597 3.12289C51.9985 2.3769 53.6172 2.00391 55.4157 2.00391C58.0166 2.00391 60.0918 2.63938 61.6413 3.91032C63.1908 5.15364 64.2284 6.56273 64.7541 8.1376L60.5622 9.91968C60.2578 8.98029 59.6768 8.15141 58.819 7.43305C57.9613 6.71469 56.8545 6.35551 55.4987 6.35551C54.1429 6.35551 52.9946 6.70088 52.0539 7.39161C51.1408 8.08234 50.6842 8.96647 50.6842 10.044C50.6842 11.0663 51.0993 11.909 51.9294 12.5721C52.7594 13.2352 54.0599 13.8707 55.8307 14.4785L57.6984 15.1002C60.244 15.9843 62.2085 17.1447 63.592 18.5814C65.0031 19.9905 65.7087 21.8831 65.7087 24.2593C65.7087 26.1933 65.2107 27.8234 64.2146 29.1496C63.2185 30.4482 61.9457 31.4152 60.3962 32.0507C58.8744 32.6862 57.2972 33.0039 55.6647 33.0039Z" fill="white"/>
<path d="M79.6187 33.0039C77.1561 33.0039 74.9426 32.2855 72.9781 30.8488C71.0135 29.4121 69.6577 27.3952 68.9107 24.798L73.3101 23.0159C73.7528 24.6461 74.5276 25.9861 75.6343 27.036C76.7688 28.0583 78.1246 28.5694 79.7017 28.5694C81.1682 28.5694 82.4133 28.1964 83.4371 27.4504C84.4609 26.6768 84.9727 25.6269 84.9727 24.3007C84.9727 23.085 84.5162 22.0904 83.6031 21.3167C82.7177 20.5155 81.1544 19.7142 78.9131 18.913L77.0455 18.2499C75.0533 17.5592 73.3793 16.5645 72.0235 15.2659C70.6677 13.9674 69.9898 12.2544 69.9898 10.1269C69.9898 8.66255 70.391 7.30872 71.1934 6.06541C71.9958 4.82209 73.1026 3.84125 74.5137 3.12289C75.9525 2.3769 77.5712 2.00391 79.3697 2.00391C81.9706 2.00391 84.0458 2.63938 85.5953 3.91032C87.1448 5.15364 88.1824 6.56273 88.7081 8.1376L84.5162 9.91968C84.2118 8.98029 83.6308 8.15141 82.773 7.43305C81.9153 6.71469 80.8085 6.35551 79.4527 6.35551C78.0969 6.35551 76.9486 6.70088 76.0079 7.39161C75.0948 8.08234 74.6382 8.96647 74.6382 10.044C74.6382 11.0663 75.0533 11.909 75.8834 12.5721C76.7134 13.2352 78.0139 13.8707 79.7847 14.4785L81.6524 15.1002C84.198 15.9843 86.1625 17.1447 87.546 18.5814C88.9571 19.9905 89.6627 21.8831 89.6627 24.2593C89.6627 26.1933 89.1647 27.8234 88.1686 29.1496C87.1725 30.4482 85.8997 31.4152 84.3502 32.0507C82.8284 32.6862 81.2512 33.0039 79.6187 33.0039Z" fill="white"/>
<path d="M108.885 33.0039C106.008 33.0039 103.393 32.327 101.041 30.9732C98.6891 29.5917 96.8352 27.7129 95.4794 25.3368C94.1513 22.9607 93.4872 20.3497 93.4872 17.5039C93.4872 14.6581 94.1513 12.0609 95.4794 9.71246C96.8352 7.33635 98.6891 5.45756 101.041 4.0761C103.393 2.69464 106.008 2.00391 108.885 2.00391C111.763 2.00391 114.364 2.69464 116.688 4.0761C119.04 5.45756 120.894 7.33635 122.25 9.71246C123.605 12.0609 124.283 14.6581 124.283 17.5039C124.283 20.3497 123.605 22.9607 122.25 25.3368C120.921 27.7129 119.081 29.5917 116.729 30.9732C114.378 32.327 111.763 33.0039 108.885 33.0039ZM108.885 28.5694C110.85 28.5694 112.648 28.0997 114.281 27.1603C115.913 26.2209 117.2 24.9224 118.141 23.2646C119.081 21.5792 119.552 19.659 119.552 17.5039C119.552 15.3488 119.081 13.4424 118.141 11.7847C117.2 10.0993 115.913 8.78688 114.281 7.84749C112.648 6.9081 110.85 6.4384 108.885 6.4384C106.921 6.4384 105.122 6.9081 103.49 7.84749C101.857 8.78688 100.557 10.0993 99.5883 11.7847C98.6476 13.4424 98.1772 15.3488 98.1772 17.5039C98.1772 19.659 98.6476 21.5792 99.5883 23.2646C100.557 24.9224 101.857 26.2209 103.49 27.1603C105.122 28.0997 106.921 28.5694 108.885 28.5694Z" fill="white"/>
<path d="M129.595 2.66701H140.054C141.825 2.66701 143.444 3.05382 144.91 3.82744C146.377 4.60105 147.525 5.6786 148.355 7.06006C149.213 8.44152 149.642 10.0026 149.642 11.7432C149.642 13.7325 148.991 15.5008 147.691 17.048C146.418 18.5953 144.813 19.6314 142.876 20.1563L142.835 20.3635L150.97 32.0921V32.3408H145.574L137.73 20.7365H134.244V32.3408H129.595V2.66701ZM139.93 16.4264C141.313 16.4264 142.489 15.9843 143.457 15.1002C144.426 14.216 144.91 13.0832 144.91 11.7018C144.91 10.9281 144.716 10.1822 144.329 9.4638C143.942 8.74544 143.388 8.16523 142.669 7.72316C141.949 7.25346 141.092 7.01861 140.096 7.01861H134.244V16.4264H139.93Z" fill="white"/>
<path d="M163.6 33.0039C161.137 33.0039 158.923 32.2855 156.959 30.8488C154.994 29.4121 153.639 27.3952 152.892 24.798L157.291 23.0159C157.734 24.6461 158.508 25.9861 159.615 27.036C160.75 28.0583 162.105 28.5694 163.683 28.5694C165.149 28.5694 166.394 28.1964 167.418 27.4504C168.442 26.6768 168.954 25.6269 168.954 24.3007C168.954 23.085 168.497 22.0904 167.584 21.3167C166.699 20.5155 165.135 19.7142 162.894 18.913L161.026 18.2499C159.034 17.5592 157.36 16.5645 156.004 15.2659C154.649 13.9674 153.971 12.2544 153.971 10.1269C153.971 8.66255 154.372 7.30872 155.174 6.06541C155.977 4.82209 157.083 3.84125 158.495 3.12289C159.933 2.3769 161.552 2.00391 163.351 2.00391C165.951 2.00391 168.027 2.63938 169.576 3.91032C171.126 5.15364 172.163 6.56273 172.689 8.1376L168.497 9.91968C168.193 8.98029 167.612 8.15141 166.754 7.43305C165.896 6.71469 164.789 6.35551 163.434 6.35551C162.078 6.35551 160.929 6.70088 159.989 7.39161C159.076 8.08234 158.619 8.96647 158.619 10.044C158.619 11.0663 159.034 11.909 159.864 12.5721C160.694 13.2352 161.995 13.8707 163.766 14.4785L165.633 15.1002C168.179 15.9843 170.143 17.1447 171.527 18.5814C172.938 19.9905 173.644 21.8831 173.644 24.2593C173.644 26.1933 173.146 27.8234 172.149 29.1496C171.153 30.4482 169.881 31.4152 168.331 32.0507C166.809 32.6862 165.232 33.0039 163.6 33.0039Z" fill="white"/>
</svg>
